<mxfile host="app.diagrams.net" agent="Mozilla/5.0 (Windows NT 10.0; Win64; x64) AppleWebKit/537.36 (KHTML, like Gecko) Chrome/128.0.0.0 Safari/537.36" version="24.7.12">
  <diagram name="Page-1" id="mc2oik9DIsQJKKzHuvJ_">
    <mxGraphModel dx="1434" dy="738" grid="1" gridSize="10" guides="1" tooltips="1" connect="1" arrows="1" fold="1" page="1" pageScale="1" pageWidth="850" pageHeight="1100" math="0" shadow="0">
      <root>
        <mxCell id="0" />
        <mxCell id="1" parent="0" />
        <mxCell id="V-BxirTJvduKWQty-bwE-1" value="CoordinationHub" style="whiteSpace=wrap;strokeWidth=2;verticalAlign=top;" vertex="1" parent="1">
          <mxGeometry x="20" y="123" width="1506" height="84" as="geometry" />
        </mxCell>
        <mxCell id="V-BxirTJvduKWQty-bwE-2" value="Central Coordination Hub" style="whiteSpace=wrap;strokeWidth=2;" vertex="1" parent="1">
          <mxGeometry x="637" y="148" width="197" height="34" as="geometry" />
        </mxCell>
        <mxCell id="V-BxirTJvduKWQty-bwE-3" value="Data Collection Agent" style="whiteSpace=wrap;strokeWidth=2;" vertex="1" parent="1">
          <mxGeometry x="650" y="20" width="171" height="34" as="geometry" />
        </mxCell>
        <mxCell id="V-BxirTJvduKWQty-bwE-4" value="Feature Extraction Agent" style="whiteSpace=wrap;strokeWidth=2;" vertex="1" parent="1">
          <mxGeometry x="24" y="276" width="195" height="34" as="geometry" />
        </mxCell>
        <mxCell id="V-BxirTJvduKWQty-bwE-5" value="Classification Agent" style="whiteSpace=wrap;strokeWidth=2;" vertex="1" parent="1">
          <mxGeometry x="298" y="276" width="156" height="34" as="geometry" />
        </mxCell>
        <mxCell id="V-BxirTJvduKWQty-bwE-6" value="Response Agent" style="whiteSpace=wrap;strokeWidth=2;" vertex="1" parent="1">
          <mxGeometry x="534" y="276" width="126" height="34" as="geometry" />
        </mxCell>
        <mxCell id="V-BxirTJvduKWQty-bwE-7" value="System Optimizer Agent" style="whiteSpace=wrap;strokeWidth=2;" vertex="1" parent="1">
          <mxGeometry x="781" y="276" width="187" height="34" as="geometry" />
        </mxCell>
        <mxCell id="V-BxirTJvduKWQty-bwE-8" value="Security Auditor Agent" style="whiteSpace=wrap;strokeWidth=2;" vertex="1" parent="1">
          <mxGeometry x="1085" y="276" width="176" height="34" as="geometry" />
        </mxCell>
        <mxCell id="V-BxirTJvduKWQty-bwE-9" value="Health Monitoring Agent" style="whiteSpace=wrap;strokeWidth=2;" vertex="1" parent="1">
          <mxGeometry x="1338" y="276" width="189" height="34" as="geometry" />
        </mxCell>
        <mxCell id="V-BxirTJvduKWQty-bwE-10" value="Collects URLs" style="curved=1;startArrow=none;endArrow=block;exitX=0.5;exitY=1;entryX=0.5;entryY=0;rounded=0;" edge="1" parent="1" source="V-BxirTJvduKWQty-bwE-3" target="V-BxirTJvduKWQty-bwE-2">
          <mxGeometry relative="1" as="geometry">
            <Array as="points" />
          </mxGeometry>
        </mxCell>
        <mxCell id="V-BxirTJvduKWQty-bwE-11" value="Distributes Tasks" style="curved=1;startArrow=none;endArrow=block;exitX=0;exitY=0.68;entryX=0.4;entryY=0;rounded=0;" edge="1" parent="1" source="V-BxirTJvduKWQty-bwE-2" target="V-BxirTJvduKWQty-bwE-4">
          <mxGeometry relative="1" as="geometry">
            <Array as="points">
              <mxPoint x="60" y="207" />
              <mxPoint x="60" y="242" />
            </Array>
          </mxGeometry>
        </mxCell>
        <mxCell id="V-BxirTJvduKWQty-bwE-12" value="Extracts Features" style="curved=1;startArrow=none;endArrow=block;exitX=0.64;exitY=0;entryX=0;entryY=0.73;rounded=0;" edge="1" parent="1" source="V-BxirTJvduKWQty-bwE-4" target="V-BxirTJvduKWQty-bwE-2">
          <mxGeometry relative="1" as="geometry">
            <Array as="points">
              <mxPoint x="203" y="242" />
              <mxPoint x="203" y="207" />
            </Array>
          </mxGeometry>
        </mxCell>
        <mxCell id="V-BxirTJvduKWQty-bwE-13" value="Coordinates" style="curved=1;startArrow=none;endArrow=block;exitX=0;exitY=0.8;entryX=0.4;entryY=0;rounded=0;" edge="1" parent="1" source="V-BxirTJvduKWQty-bwE-2" target="V-BxirTJvduKWQty-bwE-5">
          <mxGeometry relative="1" as="geometry">
            <Array as="points">
              <mxPoint x="328" y="207" />
              <mxPoint x="328" y="242" />
            </Array>
          </mxGeometry>
        </mxCell>
        <mxCell id="V-BxirTJvduKWQty-bwE-14" value="Classifies URLs" style="curved=1;startArrow=none;endArrow=block;exitX=0.65;exitY=0;entryX=0;entryY=0.92;rounded=0;" edge="1" parent="1" source="V-BxirTJvduKWQty-bwE-5" target="V-BxirTJvduKWQty-bwE-2">
          <mxGeometry relative="1" as="geometry">
            <Array as="points">
              <mxPoint x="444" y="242" />
              <mxPoint x="444" y="207" />
            </Array>
          </mxGeometry>
        </mxCell>
        <mxCell id="V-BxirTJvduKWQty-bwE-15" value="Instructs" style="curved=1;startArrow=none;endArrow=block;exitX=0.12;exitY=1;entryX=0.37;entryY=0;rounded=0;" edge="1" parent="1" source="V-BxirTJvduKWQty-bwE-2" target="V-BxirTJvduKWQty-bwE-6">
          <mxGeometry relative="1" as="geometry">
            <Array as="points">
              <mxPoint x="548" y="207" />
              <mxPoint x="548" y="242" />
            </Array>
          </mxGeometry>
        </mxCell>
        <mxCell id="V-BxirTJvduKWQty-bwE-16" value="Executes Response" style="curved=1;startArrow=none;endArrow=block;exitX=0.68;exitY=0;entryX=0.36;entryY=1;rounded=0;" edge="1" parent="1" source="V-BxirTJvduKWQty-bwE-6" target="V-BxirTJvduKWQty-bwE-2">
          <mxGeometry relative="1" as="geometry">
            <Array as="points">
              <mxPoint x="666" y="242" />
              <mxPoint x="666" y="207" />
            </Array>
          </mxGeometry>
        </mxCell>
        <mxCell id="V-BxirTJvduKWQty-bwE-17" value="Monitors and Optimizes" style="curved=1;startArrow=none;endArrow=block;exitX=0.65;exitY=0;entryX=0.97;entryY=1;rounded=0;" edge="1" parent="1" source="V-BxirTJvduKWQty-bwE-7" target="V-BxirTJvduKWQty-bwE-2">
          <mxGeometry relative="1" as="geometry">
            <Array as="points">
              <mxPoint x="963" y="242" />
              <mxPoint x="963" y="207" />
            </Array>
          </mxGeometry>
        </mxCell>
        <mxCell id="V-BxirTJvduKWQty-bwE-18" value="Checks Security" style="curved=1;startArrow=none;endArrow=block;exitX=0.64;exitY=0;entryX=1;entryY=0.74;rounded=0;" edge="1" parent="1" source="V-BxirTJvduKWQty-bwE-8" target="V-BxirTJvduKWQty-bwE-2">
          <mxGeometry relative="1" as="geometry">
            <Array as="points">
              <mxPoint x="1248" y="242" />
              <mxPoint x="1248" y="207" />
            </Array>
          </mxGeometry>
        </mxCell>
        <mxCell id="V-BxirTJvduKWQty-bwE-19" value="Monitors Health" style="curved=1;startArrow=none;endArrow=block;exitX=0.63;exitY=0;entryX=1;entryY=0.66;rounded=0;" edge="1" parent="1" source="V-BxirTJvduKWQty-bwE-9" target="V-BxirTJvduKWQty-bwE-2">
          <mxGeometry relative="1" as="geometry">
            <Array as="points">
              <mxPoint x="1507" y="242" />
              <mxPoint x="1507" y="207" />
            </Array>
          </mxGeometry>
        </mxCell>
        <mxCell id="V-BxirTJvduKWQty-bwE-20" value="Communicates" style="curved=1;startArrow=none;endArrow=block;exitX=0.64;exitY=1;entryX=0.38;entryY=0;rounded=0;" edge="1" parent="1" source="V-BxirTJvduKWQty-bwE-2" target="V-BxirTJvduKWQty-bwE-7">
          <mxGeometry relative="1" as="geometry">
            <Array as="points">
              <mxPoint x="806" y="207" />
              <mxPoint x="806" y="242" />
            </Array>
          </mxGeometry>
        </mxCell>
        <mxCell id="V-BxirTJvduKWQty-bwE-21" value="Reports Status" style="curved=1;startArrow=none;endArrow=block;exitX=1;exitY=0.82;entryX=0.4;entryY=0;rounded=0;" edge="1" parent="1" source="V-BxirTJvduKWQty-bwE-2" target="V-BxirTJvduKWQty-bwE-8">
          <mxGeometry relative="1" as="geometry">
            <Array as="points">
              <mxPoint x="1119" y="207" />
              <mxPoint x="1119" y="242" />
            </Array>
          </mxGeometry>
        </mxCell>
        <mxCell id="V-BxirTJvduKWQty-bwE-22" value="Shares Insights" style="curved=1;startArrow=none;endArrow=block;exitX=1;exitY=0.69;entryX=0.4;entryY=0;rounded=0;" edge="1" parent="1" source="V-BxirTJvduKWQty-bwE-2" target="V-BxirTJvduKWQty-bwE-9">
          <mxGeometry relative="1" as="geometry">
            <Array as="points">
              <mxPoint x="1377" y="207" />
              <mxPoint x="1377" y="242" />
            </Array>
          </mxGeometry>
        </mxCell>
      </root>
    </mxGraphModel>
  </diagram>
</mxfile>
